<svg xmlns="http://www.w3.org/2000/svg" viewBox="0 0 26.74 29.93"><defs><style>.cls-1{fill:#fff;}</style></defs><title>Asset 1</title><g id="Layer_2" data-name="Layer 2"><g id="Layer_1-2" data-name="Layer 1"><g id="图层_2" data-name="图层 2"><g id="Layer_1-3" data-name="Layer 1"><path class="cls-1" d="M25.23,6.37l-1.44-.83L16.32,1.23,14.88.39a3.08,3.08,0,0,0-3,0l-1.44.84L3,5.54l-1.44.83A3,3,0,0,0,0,9V21A3,3,0,0,0,1.51,23.6L3,24.38l7.47,4.31,1.44.84a3,3,0,0,0,3,0l1.44-.84,7.47-4.31,1.44-.83A3,3,0,0,0,26.74,21V9A3,3,0,0,0,25.23,6.37ZM12.4,14.14,3.34,8.91a.8.8,0,0,1-.16-1.13.88.88,0,0,1,.25-.22l9.24-5.34a1.42,1.42,0,0,1,1.41,0l9.19,5.35a.71.71,0,0,1,.26,1,.65.65,0,0,1-.26.26l-8.93,5.34A1.92,1.92,0,0,1,12.4,14.14Zm4.72,9.05-1,.58A.22.22,0,0,0,16,24v3a.18.18,0,0,1-.1.17L14,28.26a.21.21,0,0,1-.27-.08.29.29,0,0,1,0-.09V18.78a.21.21,0,0,1,.1-.17l3.3-1.87c2.14-1.21,3.91-1.45,3.91,1S19.17,22,17.12,23.19Zm7-.79a.18.18,0,0,1-.1.17l-1.92,1.09a.21.21,0,0,1-.27-.08.29.29,0,0,1,0-.09V19.08a.21.21,0,0,1,.1-.17l1.92-1.08a.2.2,0,0,1,.27.09.31.31,0,0,1,0,.08Zm-1.15-5.12c-.78.45-1.33.26-1.33-.43a2.49,2.49,0,0,1,1.33-2c.77-.44,1.32-.25,1.32.45A2.45,2.45,0,0,1,22.92,17.28Z"/><path class="cls-1" d="M18.68,19A2.81,2.81,0,0,1,17,21.41l-.73.42a.21.21,0,0,1-.27-.08.29.29,0,0,1,0-.09V19.3a.21.21,0,0,1,.1-.17l.86-.48C18.06,18,18.68,18,18.68,19Z"/></g></g></g></g></svg>