<svg xmlns="http://www.w3.org/2000/svg" viewBox="0 0 87.74 29.94"><defs><style>.cls-1{fill:#fff;}</style></defs><title>logo</title><g id="图层_2" data-name="图层 2"><g id="Layer_1" data-name="Layer 1"><path class="cls-1" d="M25.23,6.38l-1.44-.83L16.32,1.24,14.88.4a3.05,3.05,0,0,0-3,0l-1.44.84L3,5.55l-1.44.83A3,3,0,0,0,0,9V21a3,3,0,0,0,1.51,2.61L3,24.39l7.47,4.31,1.44.84a3.05,3.05,0,0,0,3,0l1.44-.84,7.47-4.31,1.44-.83A3,3,0,0,0,26.74,21V9A3,3,0,0,0,25.23,6.38ZM12.4,14.15,3.34,8.92a.81.81,0,0,1,.09-1.35l9.24-5.34a1.42,1.42,0,0,1,1.41,0l9.19,5.35a.71.71,0,0,1,0,1.23l-8.93,5.34A1.94,1.94,0,0,1,12.4,14.15Zm4.72,9.05-1,.58A.21.21,0,0,0,16,24v3a.19.19,0,0,1-.1.17l-1.94,1.1a.2.2,0,0,1-.29-.17V18.79a.18.18,0,0,1,.1-.17l3.3-1.87c2.14-1.21,3.91-1.45,3.91,1S19.17,22,17.12,23.2Zm6.95-.79a.19.19,0,0,1-.1.17l-1.92,1.09a.2.2,0,0,1-.29-.17V19.09a.21.21,0,0,1,.1-.17l1.92-1.08a.2.2,0,0,1,.29.17Zm-1.15-5.12c-.78.45-1.33.26-1.33-.43a2.47,2.47,0,0,1,1.33-2c.77-.44,1.32-.25,1.32.45A2.47,2.47,0,0,1,22.92,17.29Z"/><path class="cls-1" d="M18.68,19A2.8,2.8,0,0,1,17,21.42l-.73.42a.2.2,0,0,1-.29-.17V19.31a.19.19,0,0,1,.1-.17l.86-.48C18.06,18,18.68,18,18.68,19Z"/><path class="cls-1" d="M33.75,9.83H30.46V21.35h1.46V16.78h1.91c2.51,0,4.24-1.14,4.24-3.57S36.34,9.83,33.75,9.83Zm-.11,5.77H31.92V11h1.66c2,0,3,.53,3,2.2S35.67,15.6,33.64,15.6Z"/><path class="cls-1" d="M40,12.81v8.54h1.43V12.81Zm.72-3.61a.9.9,0,0,0-1,.93,1,1,0,0,0,2,0A.9.9,0,0,0,40.68,9.2Z"/><path class="cls-1" d="M49.65,14.7l-1.46-.58c-1-.41-1.77-.66-1.77-1.31s.53-1,1.4-1a3.75,3.75,0,0,1,2.4.9L51.62,11a5.41,5.41,0,0,0-3.8-1.55c-2.49,0-4.25,1.58-4.25,3.54A3.43,3.43,0,0,0,46,16.18l1.49.63c1,.42,1.65.64,1.65,1.32s-.49,1-1.53,1A4.72,4.72,0,0,1,44.72,18l-1.59,1.94a6.58,6.58,0,0,0,4.37,1.68c2.83,0,4.47-1.71,4.47-3.66A3.24,3.24,0,0,0,49.65,14.7Z"/><path class="cls-1" d="M58.61,12.41v5.86a1.68,1.68,0,0,1-1.49.91c-.71,0-1-.35-1-1.59V12.41H53.29v5.53c0,2.23.83,3.63,2.78,3.63a3.49,3.49,0,0,0,2.8-1.45h.06l.2,1.23h2.28V12.41Z"/><path class="cls-1" d="M68.17,19.59H66.76c-1,0-1.32-.19-1.32-.6a.71.71,0,0,1,.28-.63,4,4,0,0,0,1.05.16c2,0,3.57-.91,3.57-3a2.37,2.37,0,0,0-.25-1.09h1.38v-2H68.19a4.19,4.19,0,0,0-1.42-.22c-1.93,0-3.74,1.06-3.74,3.25a2.86,2.86,0,0,0,1.21,2.31v.06a2.17,2.17,0,0,0-1,1.67A1.75,1.75,0,0,0,64.07,21v.08a2,2,0,0,0-1.27,1.76c0,1.6,1.69,2.25,3.75,2.25,3.11,0,5.06-1.34,5.06-3.23C71.61,20.26,70.37,19.59,68.17,19.59Zm-1.4-5.53c.66,0,1.13.47,1.13,1.38s-.47,1.4-1.13,1.4-1.13-.47-1.13-1.4S66.13,14.06,66.77,14.06Zm.22,9.3c-1.15,0-1.9-.31-1.9-.94a1,1,0,0,1,.42-.8,4.79,4.79,0,0,0,1.28.11h.85c.83,0,1.3.11,1.3.64S68.14,23.36,67,23.36Z"/><path class="cls-1" d="M76.12,12.19a7.52,7.52,0,0,0-3.85,1.17l1,1.84a4.89,4.89,0,0,1,2.34-.78c.91,0,1.29.42,1.35,1.14-3.49.38-5,1.4-5,3.29a2.59,2.59,0,0,0,2.66,2.72,3.82,3.82,0,0,0,2.56-1.12h.07l.2.9h2.28V16.27C79.74,13.47,78.43,12.19,76.12,12.19Zm.82,6.5a1.76,1.76,0,0,1-1.35.71c-.58,0-1-.25-1-.77s.57-1.13,2.31-1.37Z"/><path class="cls-1" d="M86.66,12.19A3.06,3.06,0,0,0,84.11,14h-.06l-.19-1.55H81.58v8.94h2.78V16.24a2.17,2.17,0,0,1,1.93-1.6,3.62,3.62,0,0,1,1,.14l.47-2.41A2.54,2.54,0,0,0,86.66,12.19Z"/></g></g></svg>