<?xml version="1.0" standalone="no"?><!DOCTYPE svg PUBLIC "-//W3C//DTD SVG 1.1//EN" "http://www.w3.org/Graphics/SVG/1.1/DTD/svg11.dtd"><svg class="icon" style="fill:#FFAB17;" width="200px" height="200.00px" viewBox="0 0 1024 1024" version="1.1" xmlns="http://www.w3.org/2000/svg"><path d="M877.376 348.992a47.712 47.712 0 0 0-67.456 0l-112.416 112.416-134.912-134.912 112.416-112.416a47.712 47.712 0 0 0-67.44-67.456l-112.416 112.416-67.456-67.456-95.552 95.552c-99.088 99.088-107.504 254.16-25.872 363.136L146.624 809.92a47.712 47.712 0 0 0 67.456 67.456l159.632-159.632c108.976 81.632 264.048 73.216 363.136-25.872l95.552-95.568-67.456-67.456 112.416-112.416a47.68 47.68 0 0 0 0.016-67.44z"  /></svg>